<svg width="20" height="20" viewBox="0 0 24 23" fill="none" xmlns="http://www.w3.org/2000/svg">
<path fill-rule="evenodd" clip-rule="evenodd" d="M4.76375 3.52556C6.40392 1.50689 8.93189 0 12.4244 0C15.9168 0 18.4448 1.50689 20.085 3.52556C21.7075 5.52247 22.4586 8.01356 22.4586 10.0342V17.2896L24 19.6017H0L2.39016 17.2115V10.0342C2.39016 8.01356 3.14126 5.52247 4.76375 3.52556ZM3.79028 17.5015V17.7915L3.38019 18.2016H21.3839L21.0584 17.7135V17.5015V10.0342C21.0584 8.3212 20.4094 6.14521 18.9983 4.40847C17.6049 2.69347 15.4658 1.40012 12.4244 1.40012C9.38294 1.40012 7.24384 2.69347 5.85041 4.40847C4.4393 6.14521 3.79028 8.3212 3.79028 10.0342V17.5015Z" fill="black"/>
<path fill-rule="evenodd" clip-rule="evenodd" d="M12.3913 22.8687C10.7318 22.8677 8.96493 22.1777 8.08447 20.6516L9.29723 19.9519C9.85091 20.9116 11.057 21.4678 12.3921 21.4685C13.7252 21.4693 14.9638 20.9147 15.5606 19.937L16.7557 20.6665C15.831 22.1813 14.0529 22.8696 12.3913 22.8687Z" fill="black"/>
</svg>
