<svg width="16" height="16" viewBox="0 0 16 16" fill="none" xmlns="http://www.w3.org/2000/svg">
<path fill-rule="evenodd" clip-rule="evenodd" d="M12.5 7C12.5 10.3137 10.3137 12.4246 7 12.4246C3.68629 12.4246 1.5 10.3137 1.5 7C1.5 3.68629 3.6863 1.5 7 1.5C10.3137 1.5 12.5 3.68629 12.5 7ZM11.4246 12.4246C10.2187 13.4094 8.67832 14 7 14C3.13401 14 0 10.866 0 7C0 3.13401 3.13401 0 7 0C10.866 0 14 3.13401 14 7C14 8.82763 13.647 10.2533 12.5 11.5L14 13L16 15L15 16L11.4246 12.4246Z" fill="black"/>
</svg>
